<svg width="560" height="180" viewBox="0 0 560 180" fill="none" xmlns="http://www.w3.org/2000/svg">
  <defs>
    <linearGradient id="goldEdge" x1="44" y1="28" x2="188" y2="156" gradientUnits="userSpaceOnUse">
      <stop stop-color="#FFF3C8"/>
      <stop offset="1" stop-color="#C89B53"/>
    </linearGradient>
    <linearGradient id="navyGlass" x1="18" y1="12" x2="210" y2="166" gradientUnits="userSpaceOnUse">
      <stop stop-color="#28415A"/>
      <stop offset="1" stop-color="#0F1825"/>
    </linearGradient>
    <linearGradient id="wordGold" x1="220" y1="40" x2="460" y2="144" gradientUnits="userSpaceOnUse">
      <stop stop-color="#FFF4CD"/>
      <stop offset="0.55" stop-color="#E5CB7C"/>
      <stop offset="1" stop-color="#B58863"/>
    </linearGradient>
    <filter id="softShadow" x="0" y="0" width="560" height="180" filterUnits="userSpaceOnUse" color-interpolation-filters="sRGB">
      <feDropShadow dx="0" dy="8" stdDeviation="8" flood-color="#000000" flood-opacity="0.24"/>
    </filter>
  </defs>

  <g filter="url(#softShadow)">
    <rect x="14" y="16" width="532" height="148" rx="24" fill="#101926" fill-opacity="0.24"/>
    <path d="M34 34L58 146H82L100 82L120 146H146L169 34H141L131 106L112 34H90L72 106L61 34H34Z" fill="url(#goldEdge)"/>
    <path d="M139 30H173V44H169V52H177V66H173V128H139V66H135V52H143V44H139V30Z" fill="url(#navyGlass)" stroke="#F3E2A0" stroke-width="4"/>
    <path d="M144 22H150V30H144V22Z" fill="#F3E2A0"/>
    <path d="M153 22H159V30H153V22Z" fill="#F3E2A0"/>
    <path d="M162 22H168V30H162V22Z" fill="#F3E2A0"/>
    <path d="M143 138H172" stroke="#F3E2A0" stroke-width="8" stroke-linecap="round"/>

    <text x="206" y="82" fill="url(#wordGold)" font-family="'Space Grotesk', 'Segoe UI', sans-serif" font-size="44" font-weight="700" letter-spacing="1.5">
      Wonderful
    </text>
    <text x="206" y="124" fill="#F7F4EA" font-family="'Space Grotesk', 'Segoe UI', sans-serif" font-size="47" font-weight="700" letter-spacing="2">
      Chess
    </text>
  </g>
</svg>
